<svg width="40" height="41" viewBox="0 0 40 41" fill="none" xmlns="http://www.w3.org/2000/svg">
<path fill-rule="evenodd" clip-rule="evenodd" d="M38.4155 9.52864C40.5282 10.7051 40.5282 13.3515 38.4155 14.528L35.7062 16.0367L38.4155 17.5455C40.5282 18.722 40.5282 21.3685 38.4155 22.5451L35.7024 24.056L38.4155 25.5667C40.5282 26.7432 40.5282 29.3896 38.4155 30.5661L22.3131 39.5329C20.968 40.282 19.032 40.282 17.6869 39.5329L1.58453 30.5661C-0.528177 29.3896 -0.528177 26.7432 1.58453 25.5667L4.29756 24.056L1.58453 22.5451C-0.528177 21.3685 -0.528177 18.722 1.58453 17.5455L4.29379 16.0367L1.58453 14.528C-0.528177 13.3515 -0.528177 10.7051 1.58453 9.52864L17.6869 0.561795C19.032 -0.187265 20.968 -0.187265 22.3131 0.561795L38.4155 9.52864ZM22.3131 23.4948L31.5879 18.3301L34.6678 20.0453L20.3706 28.0073C20.2335 28.0837 19.7665 28.0837 19.6294 28.0073L5.33221 20.0453L8.41215 18.3301L17.6869 23.4948C19.032 24.2439 20.968 24.2439 22.3131 23.4948ZM31.5843 26.3493L22.3131 31.5124C20.968 32.2615 19.032 32.2615 17.6869 31.5124L8.4157 26.3493L5.33221 28.0664L19.6294 36.0281C19.7665 36.1044 20.2335 36.1044 20.3706 36.0281L34.6678 28.0664L31.5843 26.3493ZM19.631 4.06603C19.768 3.98971 20.2351 3.98971 20.3721 4.06603L34.6693 12.0278L20.3721 19.9896C20.2351 20.066 19.768 20.066 19.631 19.9896L5.33374 12.0278L19.631 4.06603Z" fill="#07122A"/>
</svg>
