<svg width="113" height="27" viewBox="0 0 113 27" fill="none" xmlns="http://www.w3.org/2000/svg">
<path d="M34.0693 8.04688V18H32.0254V8.04688H34.0693ZM45.4908 8.04688V18H43.44L39.441 11.3281V18H37.3902V8.04688H39.441L43.4469 14.7256V8.04688H45.4908ZM52.2639 15.9219L54.6086 8.04688H56.8918L53.426 18H51.9221L52.2639 15.9219ZM50.1037 8.04688L52.4416 15.9219L52.7971 18H51.2795L47.8342 8.04688H50.1037ZM65.9002 16.4004V18H60.6023V16.4004H65.9002ZM61.2723 8.04688V18H59.2215V8.04688H61.2723ZM65.2098 12.1006V13.6592H60.6023V12.1006H65.2098ZM65.8934 8.04688V9.65332H60.6023V8.04688H65.8934Z" fill="white"/>
<path d="M68.4965 8.04688H72.2084C72.9695 8.04688 73.6234 8.16081 74.1703 8.38867C74.7217 8.61654 75.1456 8.95378 75.4418 9.40039C75.738 9.84701 75.8861 10.3962 75.8861 11.0479C75.8861 11.5811 75.795 12.0391 75.6127 12.4219C75.435 12.8001 75.182 13.1169 74.8539 13.3721C74.5303 13.6227 74.1498 13.8232 73.7123 13.9736L73.0629 14.3154H69.8363L69.8227 12.7158H72.2221C72.5821 12.7158 72.8806 12.652 73.1176 12.5244C73.3546 12.3968 73.5323 12.2191 73.6508 11.9912C73.7738 11.7633 73.8354 11.499 73.8354 11.1982C73.8354 10.8792 73.7761 10.6035 73.6576 10.3711C73.5391 10.1387 73.3591 9.96094 73.1176 9.83789C72.876 9.71484 72.573 9.65332 72.2084 9.65332H70.5473V18H68.4965V8.04688ZM74.0609 18L71.7914 13.5635L73.9584 13.5498L76.2553 17.9043V18H74.0609ZM87.041 12.791V13.2627C87.041 14.0192 86.9385 14.6982 86.7334 15.2998C86.5283 15.9014 86.2389 16.4141 85.8652 16.8379C85.4915 17.2572 85.0449 17.5785 84.5254 17.8018C84.0104 18.0251 83.4385 18.1367 82.8096 18.1367C82.1852 18.1367 81.6133 18.0251 81.0938 17.8018C80.5788 17.5785 80.1322 17.2572 79.7539 16.8379C79.3757 16.4141 79.0817 15.9014 78.8721 15.2998C78.667 14.6982 78.5645 14.0192 78.5645 13.2627V12.791C78.5645 12.0299 78.667 11.3509 78.8721 10.7539C79.0771 10.1523 79.3665 9.63965 79.7402 9.21582C80.1185 8.79199 80.5651 8.46842 81.0801 8.24512C81.5996 8.02181 82.1715 7.91016 82.7959 7.91016C83.4248 7.91016 83.9967 8.02181 84.5117 8.24512C85.0312 8.46842 85.4779 8.79199 85.8516 9.21582C86.2298 9.63965 86.5215 10.1523 86.7266 10.7539C86.9362 11.3509 87.041 12.0299 87.041 12.791ZM84.9697 13.2627V12.7773C84.9697 12.2487 84.9219 11.7839 84.8262 11.3828C84.7305 10.9818 84.5892 10.6445 84.4023 10.3711C84.2155 10.0977 83.9876 9.89258 83.7188 9.75586C83.4499 9.61458 83.1423 9.54395 82.7959 9.54395C82.4495 9.54395 82.1419 9.61458 81.873 9.75586C81.6087 9.89258 81.3831 10.0977 81.1963 10.3711C81.014 10.6445 80.875 10.9818 80.7793 11.3828C80.6836 11.7839 80.6357 12.2487 80.6357 12.7773V13.2627C80.6357 13.7868 80.6836 14.2516 80.7793 14.6572C80.875 15.0583 81.0163 15.3978 81.2031 15.6758C81.39 15.9492 81.6178 16.1566 81.8867 16.2979C82.1556 16.4391 82.4632 16.5098 82.8096 16.5098C83.1559 16.5098 83.4635 16.4391 83.7324 16.2979C84.0013 16.1566 84.2269 15.9492 84.4092 15.6758C84.5915 15.3978 84.7305 15.0583 84.8262 14.6572C84.9219 14.2516 84.9697 13.7868 84.9697 13.2627ZM98.0934 12.791V13.2627C98.0934 14.0192 97.9908 14.6982 97.7857 15.2998C97.5807 15.9014 97.2913 16.4141 96.9176 16.8379C96.5439 17.2572 96.0973 17.5785 95.5777 17.8018C95.0628 18.0251 94.4908 18.1367 93.8619 18.1367C93.2376 18.1367 92.6656 18.0251 92.1461 17.8018C91.6311 17.5785 91.1845 17.2572 90.8063 16.8379C90.428 16.4141 90.1341 15.9014 89.9244 15.2998C89.7193 14.6982 89.6168 14.0192 89.6168 13.2627V12.791C89.6168 12.0299 89.7193 11.3509 89.9244 10.7539C90.1295 10.1523 90.4189 9.63965 90.7926 9.21582C91.1708 8.79199 91.6174 8.46842 92.1324 8.24512C92.652 8.02181 93.2239 7.91016 93.8482 7.91016C94.4771 7.91016 95.0491 8.02181 95.5641 8.24512C96.0836 8.46842 96.5302 8.79199 96.9039 9.21582C97.2822 9.63965 97.5738 10.1523 97.7789 10.7539C97.9885 11.3509 98.0934 12.0299 98.0934 12.791ZM96.0221 13.2627V12.7773C96.0221 12.2487 95.9742 11.7839 95.8785 11.3828C95.7828 10.9818 95.6415 10.6445 95.4547 10.3711C95.2678 10.0977 95.04 9.89258 94.7711 9.75586C94.5022 9.61458 94.1946 9.54395 93.8482 9.54395C93.5019 9.54395 93.1943 9.61458 92.9254 9.75586C92.6611 9.89258 92.4355 10.0977 92.2486 10.3711C92.0663 10.6445 91.9273 10.9818 91.8316 11.3828C91.7359 11.7839 91.6881 12.2487 91.6881 12.7773V13.2627C91.6881 13.7868 91.7359 14.2516 91.8316 14.6572C91.9273 15.0583 92.0686 15.3978 92.2555 15.6758C92.4423 15.9492 92.6702 16.1566 92.9391 16.2979C93.2079 16.4391 93.5156 16.5098 93.8619 16.5098C94.2083 16.5098 94.5159 16.4391 94.7848 16.2979C95.0536 16.1566 95.2792 15.9492 95.4615 15.6758C95.6438 15.3978 95.7828 15.0583 95.8785 14.6572C95.9742 14.2516 96.0221 13.7868 96.0221 13.2627ZM101.906 8.04688H103.643L106.199 15.3545L108.756 8.04688H110.492L106.897 18H105.502L101.906 8.04688ZM100.97 8.04688H102.699L103.014 15.1699V18H100.97V8.04688ZM109.699 8.04688H111.436V18H109.385V15.1699L109.699 8.04688Z" fill="#7786A5"/>
<rect x="1" y="3.07812" width="20.1475" height="20.1475" stroke="#7786A5" stroke-width="2"/>
<rect x="5.50346" y="16.854" width="1.03816" height="8.9282" stroke="white" stroke-width="1.03816"/>
<rect x="10.4839" y="8.68705" width="1.03816" height="8.9282" stroke="white" stroke-width="1.03816"/>
<rect x="15.607" y="0.519081" width="1.03816" height="8.9282" stroke="white" stroke-width="1.03816"/>
</svg>
