<svg width="72" height="72" viewBox="0 0 72 72" fill="none" xmlns="http://www.w3.org/2000/svg">
<g id="24x24/On Light/Dots">
<path id="view-box" opacity="0.01" fill-rule="evenodd" clip-rule="evenodd" d="M72 0L72 72L-3.14722e-06 72L0 -3.14722e-06L72 0Z" fill="#07122A"/>
<path id="Shape" fill-rule="evenodd" clip-rule="evenodd" d="M34.5 22.5C32.0147 22.5 30 20.4853 30 18C30 15.5147 32.0147 13.5 34.5 13.5C36.9853 13.5 39 15.5147 39 18C39 20.4853 36.9853 22.5 34.5 22.5ZM30 36C30 38.4853 32.0147 40.5 34.5 40.5C36.9853 40.5 39 38.4853 39 36C39 33.5147 36.9853 31.5 34.5 31.5C32.0147 31.5 30 33.5147 30 36ZM30 54C30 56.4853 32.0147 58.5 34.5 58.5C36.9853 58.5 39 56.4853 39 54C39 51.5147 36.9853 49.5 34.5 49.5C32.0147 49.5 30 51.5147 30 54Z" fill="#07122A"/>
</g>
</svg>
