<svg width="72" height="72" viewBox="0 0 72 72" fill="none" xmlns="http://www.w3.org/2000/svg">
<g id="24x24/On Light/Dots">
<path id="view-box" opacity="0.01" fill-rule="evenodd" clip-rule="evenodd" d="M0 0H72V72H0V0Z" fill="#07122A"/>
<path id="Shape" fill-rule="evenodd" clip-rule="evenodd" d="M22.5 37.5C22.5 39.9853 20.4853 42 18 42C15.5147 42 13.5 39.9853 13.5 37.5C13.5 35.0147 15.5147 33 18 33C20.4853 33 22.5 35.0147 22.5 37.5ZM36 42C38.4853 42 40.5 39.9853 40.5 37.5C40.5 35.0147 38.4853 33 36 33C33.5147 33 31.5 35.0147 31.5 37.5C31.5 39.9853 33.5147 42 36 42ZM54 42C56.4853 42 58.5 39.9853 58.5 37.5C58.5 35.0147 56.4853 33 54 33C51.5147 33 49.5 35.0147 49.5 37.5C49.5 39.9853 51.5147 42 54 42Z" fill="#07122A"/>
</g>
</svg>
