<svg width="100" height="100" viewBox="0 0 100 100" fill="none" xmlns="http://www.w3.org/2000/svg">
<rect x="3" y="97" width="94" height="94" transform="rotate(-90 3 97)" fill="white" stroke="#E1EDFD" stroke-width="6"/>
<rect x="49" y="97" width="45" height="48" transform="rotate(-90 49 97)" fill="white" stroke="#E1EDFD" stroke-width="6"/>
<rect x="3" y="32" width="28" height="50" transform="rotate(-90 3 32)" fill="white" stroke="#E1EDFD" stroke-width="6"/>
<rect x="24.25" y="94.75" width="31.5" height="2.5" transform="rotate(-90 24.25 94.75)" fill="white" stroke="#E1EDFD" stroke-width="2.5"/>
<rect x="74.25" y="32.75" width="31.5" height="2.5" transform="rotate(-90 74.25 32.75)" fill="white" stroke="#E1EDFD" stroke-width="2.5"/>
<rect x="79" y="46" width="15" height="12" fill="white"/>
<rect x="79" y="46" width="15" height="12" fill="white"/>
<rect x="79" y="46" width="15" height="12" fill="white"/>
<rect x="79" y="46" width="15" height="12" fill="white"/>
<rect x="23" y="26" width="15" height="12" fill="white"/>
<rect x="23" y="26" width="15" height="12" fill="white"/>
<rect x="23" y="26" width="15" height="12" fill="white"/>
<rect x="23" y="26" width="15" height="12" fill="white"/>
</svg>
