<svg width="20" height="20" viewBox="0 0 20 20" fill="none" xmlns="http://www.w3.org/2000/svg">
<path d="M17.5003 11.6667C17.2793 11.6667 17.0673 11.7545 16.9111 11.9108C16.7548 12.0671 16.667 12.2791 16.667 12.5001V15.8334C16.667 16.0544 16.5792 16.2664 16.4229 16.4227C16.2666 16.579 16.0547 16.6667 15.8337 16.6667H4.16699C3.94598 16.6667 3.73402 16.579 3.57774 16.4227C3.42146 16.2664 3.33366 16.0544 3.33366 15.8334V12.5001C3.33366 12.2791 3.24586 12.0671 3.08958 11.9108C2.9333 11.7545 2.72134 11.6667 2.50033 11.6667C2.27931 11.6667 2.06735 11.7545 1.91107 11.9108C1.75479 12.0671 1.66699 12.2791 1.66699 12.5001V15.8334C1.66699 16.4965 1.93038 17.1323 2.39923 17.6012C2.86807 18.07 3.50395 18.3334 4.16699 18.3334H15.8337C16.4967 18.3334 17.1326 18.07 17.6014 17.6012C18.0703 17.1323 18.3337 16.4965 18.3337 15.8334V12.5001C18.3337 12.2791 18.2459 12.0671 18.0896 11.9108C17.9333 11.7545 17.7213 11.6667 17.5003 11.6667ZM9.40866 13.0917C9.48791 13.1676 9.58137 13.2271 9.68366 13.2667C9.78341 13.3108 9.89127 13.3336 10.0003 13.3336C10.1094 13.3336 10.2172 13.3108 10.317 13.2667C10.4193 13.2271 10.5127 13.1676 10.592 13.0917L13.9253 9.75841C14.0822 9.60149 14.1704 9.38867 14.1704 9.16675C14.1704 8.94483 14.0822 8.732 13.9253 8.57508C13.7684 8.41816 13.5556 8.33001 13.3337 8.33001C13.1117 8.33001 12.8989 8.41816 12.742 8.57508L10.8337 10.4917V2.50008C10.8337 2.27907 10.7459 2.06711 10.5896 1.91083C10.4333 1.75455 10.2213 1.66675 10.0003 1.66675C9.77931 1.66675 9.56735 1.75455 9.41107 1.91083C9.25479 2.06711 9.16699 2.27907 9.16699 2.50008V10.4917L7.25866 8.57508C7.18096 8.49738 7.08872 8.43575 6.9872 8.3937C6.88568 8.35165 6.77687 8.33001 6.66699 8.33001C6.55711 8.33001 6.4483 8.35165 6.34678 8.3937C6.24527 8.43575 6.15302 8.49738 6.07533 8.57508C5.99763 8.65278 5.93599 8.74502 5.89394 8.84654C5.85189 8.94806 5.83025 9.05687 5.83025 9.16675C5.83025 9.27663 5.85189 9.38544 5.89394 9.48696C5.93599 9.58847 5.99763 9.68072 6.07533 9.75841L9.40866 13.0917Z" fill="#7786A5"/>
</svg>
